<svg xmlns="http://www.w3.org/2000/svg" version="1.1" xmlns:xlink="http://www.w3.org/1999/xlink" width="200" height="200"><svg xmlns="http://www.w3.org/2000/svg" version="1.1" xmlns:xlink="http://www.w3.org/1999/xlink" viewBox="0 0 200 200"><rect width="200" height="200" fill="url('#gradient')"></rect><defs><linearGradient id="SvgjsLinearGradient1001" gradientTransform="rotate(0 0.5 0.5)"><stop offset="0%" stop-color="#af6d3d"></stop><stop offset="100%" stop-color="#cdcdba"></stop></linearGradient></defs><g><g fill="#2f4137" transform="matrix(1.9224334600760455,0,0,1.9224334600760455,20.343421577432764,106.34481184419117)" stroke="#9ab461" stroke-width="0.55"><path d="M6.46-2.97L6.46-2.97Q6.46-3.39 6.02-3.64Q5.58-3.90 4.35-4.17Q3.12-4.44 2.31-4.89Q1.51-5.33 1.09-5.97Q0.67-6.60 0.67-7.42L0.67-7.42Q0.67-8.88 1.88-9.82Q3.08-10.76 5.02-10.76L5.02-10.76Q7.11-10.76 8.38-9.81Q9.65-8.87 9.65-7.32L9.65-7.32L6.35-7.32Q6.35-8.59 5.01-8.59L5.01-8.59Q4.49-8.59 4.14-8.31Q3.79-8.02 3.79-7.59L3.79-7.59Q3.79-7.15 4.22-6.88Q4.65-6.60 5.59-6.43Q6.53-6.25 7.25-6.01L7.25-6.01Q9.63-5.19 9.63-3.07L9.63-3.07Q9.63-1.62 8.34-0.71Q7.06 0.20 5.02 0.20L5.02 0.20Q3.66 0.20 2.60-0.29Q1.53-0.78 0.94-1.62Q0.34-2.46 0.34-3.39L0.34-3.39L3.42-3.39Q3.44-2.66 3.91-2.32Q4.38-1.98 5.11-1.98L5.11-1.98Q5.78-1.98 6.12-2.26Q6.46-2.53 6.46-2.97ZM17.56 0L17.46-1.14Q16.42 0.20 14.64 0.20L14.64 0.20Q12.90 0.20 12.01-0.82Q11.11-1.83 11.11-3.72L11.11-3.72L11.11-10.57L14.40-10.57L14.40-3.70Q14.40-2.34 15.72-2.34L15.72-2.34Q16.86-2.34 17.33-3.15L17.33-3.15L17.33-10.57L20.64-10.57L20.64 0L17.56 0ZM22.38-10.57L25.47-10.57L25.58-9.33Q26.67-10.76 28.59-10.76L28.59-10.76Q30.24-10.76 31.06-9.78Q31.88-8.79 31.90-6.81L31.90-6.81L31.90 0L28.60 0L28.60-6.67Q28.60-7.47 28.28-7.85Q27.96-8.22 27.11-8.22L27.11-8.22Q26.14-8.22 25.67-7.46L25.67-7.46L25.67 0L22.38 0L22.38-10.57ZM33.34-5.24L33.34-5.36Q33.34-6.96 33.87-8.19Q34.39-9.42 35.38-10.09Q36.37-10.76 37.68-10.76L37.68-10.76Q39.33-10.76 40.25-9.65L40.25-9.65L40.37-10.57L43.36-10.57L43.36-0.40Q43.36 1.00 42.71 2.03Q42.06 3.06 40.83 3.61Q39.60 4.16 37.98 4.16L37.98 4.16Q36.82 4.16 35.73 3.72Q34.64 3.28 34.06 2.58L34.06 2.58L35.44 0.64Q36.36 1.73 37.86 1.73L37.86 1.73Q40.05 1.73 40.05-0.52L40.05-0.52L40.05-0.85Q39.10 0.20 37.66 0.20L37.66 0.20Q35.72 0.20 34.53-1.28Q33.34-2.76 33.34-5.24L33.34-5.24ZM36.64-5.16L36.64-5.16Q36.64-3.86 37.13-3.10Q37.62-2.34 38.50-2.34L38.50-2.34Q39.56-2.34 40.05-3.06L40.05-3.06L40.05-7.50Q39.57-8.22 38.52-8.22L38.52-8.22Q37.64-8.22 37.14-7.44Q36.64-6.65 36.64-5.16ZM45.25-10.57L48.34-10.57L48.45-9.33Q49.57-10.76 51.46-10.76L51.46-10.76Q53.47-10.76 54.17-9.17L54.17-9.17Q55.24-10.76 57.28-10.76L57.28-10.76Q60.49-10.76 60.58-6.88L60.58-6.88L60.58 0L57.28 0L57.28-6.67Q57.28-7.48 57.00-7.85Q56.73-8.22 56.01-8.22L56.01-8.22Q55.03-8.22 54.55-7.35L54.55-7.35L54.56-7.22L54.56 0L51.26 0L51.26-6.65Q51.26-7.48 51.00-7.85Q50.73-8.22 49.99-8.22L49.99-8.22Q49.04-8.22 48.54-7.35L48.54-7.35L48.54 0L45.25 0L45.25-10.57ZM71.70 0L68.41 0Q68.23-0.32 68.10-0.95L68.10-0.95Q67.19 0.20 65.56 0.20L65.56 0.20Q64.06 0.20 63.02-0.71Q61.97-1.61 61.97-2.98L61.97-2.98Q61.97-4.70 63.24-5.58Q64.51-6.46 66.93-6.46L66.93-6.46L67.95-6.46L67.95-7.01Q67.95-8.47 66.69-8.47L66.69-8.47Q65.52-8.47 65.52-7.31L65.52-7.31L62.23-7.31Q62.23-8.85 63.53-9.80Q64.83-10.76 66.86-10.76Q68.88-10.76 70.05-9.78Q71.22-8.79 71.25-7.07L71.25-7.07L71.25-2.39Q71.27-0.94 71.70-0.17L71.70-0.17L71.70 0ZM66.35-2.15L66.35-2.15Q66.96-2.15 67.37-2.41Q67.77-2.68 67.95-3.01L67.95-3.01L67.95-4.70L66.99-4.70Q65.27-4.70 65.27-3.15L65.27-3.15Q65.27-2.71 65.58-2.43Q65.88-2.15 66.35-2.15ZM73.01-10.57L76.09-10.57L76.20-9.33Q77.29-10.76 79.22-10.76L79.22-10.76Q80.87-10.76 81.68-9.78Q82.50-8.79 82.53-6.81L82.53-6.81L82.53 0L79.23 0L79.23-6.67Q79.23-7.47 78.91-7.85Q78.58-8.22 77.73-8.22L77.73-8.22Q76.77-8.22 76.30-7.46L76.30-7.46L76.30 0L73.01 0L73.01-10.57Z"></path></g></g></svg><style>@media (prefers-color-scheme: light) { :root { filter: none; } }
@media (prefers-color-scheme: dark) { :root { filter: none; } }
</style></svg>